<?xml version="1.0" encoding="utf-8"?>
<!-- Generator: Adobe Illustrator 16.0.1, SVG Export Plug-In . SVG Version: 6.00 Build 0)  -->
<!DOCTYPE svg PUBLIC "-//W3C//DTD SVG 1.1//EN" "http://www.w3.org/Graphics/SVG/1.1/DTD/svg11.dtd">
<svg version="1.1" id="Layer_1" xmlns="http://www.w3.org/2000/svg" xmlns:xlink="http://www.w3.org/1999/xlink" x="0px" y="0px"
	 width="160px" height="90px" viewBox="0 0 160 90" enable-background="new 0 0 160 90" xml:space="preserve">
<g>
	<rect x="0.055" fill="#BBBDBF" width="160" height="90"/>
</g>
<path id="video-5-icon_2_" fill="#FFFFFF" d="M77.556,38.036l16.725-3.315l-0.011-0.057l-1.119-5.646L64.98,34.601
	c-1.402,0.278-2.416,1.508-2.416,2.938c0,1.264,0,18.792,0,18.792c0,2.508,2.041,4.548,4.548,4.548h22.843
	c2.508,0,4.549-2.04,4.549-4.548V38.093v-0.058H77.556z M91.402,56.33c0,0.798-0.649,1.447-1.447,1.447H67.112
	c-0.797,0-1.447-0.649-1.447-1.447V45.395h25.737V56.33z M85.009,39.586l-2.707,2.708h-4.064l2.708-2.708H85.009z M89.326,31.355
	l3.19,2.135l-3.984,0.792l-3.192-2.136L89.326,31.355z M81.479,32.912l3.193,2.137l-3.984,0.792l-3.196-2.139L81.479,32.912z
	 M73.621,34.469l3.198,2.141L72.835,37.4l-3.201-2.142L73.621,34.469z M72.935,39.586h4.064l-2.708,2.708h-4.064L72.935,39.586z
	 M86.239,42.294l2.707-2.708h4.064l-2.709,2.708H86.239z M76.745,55.592v-8.431l6.876,4.216L76.745,55.592z"/>
</svg>
